<svg 
xmlns="http://www.w3.org/2000/svg"
viewBox="0 0 41 41"
>
 <symbol id="floppy" 
          fill="currentColor"
          stroke="currentColor"
          class ="floppy"

 >
        <path fill="#000" d="M0 0h2v2H0zM0 2h2v2H0z"/>
            <path fill="#000" d="M0 3h2v2H0zM0 5h2v2H0zM0 7h2v2H0z"/>
            <path fill="#000" d="M0 8h2v2H0zM0 10h2v2H0z"/>
            <path fill="#000" d="M0 11h2v2H0zM0 13h2v2H0zM0 15h2v2H0z"/>
            <path fill="#000" d="M0 16h2v2H0zM0 18h2v2H0z"/>
            <path fill="#000" d="M0 19h2v2H0zM18 0v2h-2V0zM16 0v2h-2V0z"/>
            <path fill="#000" d="M15 0v2h-2V0zM13 0v2h-2V0zM11 0v2H9V0z"/>
            <path fill="#000" d="M10 0v2H8V0zM8 0v2H6V0zM6 1v2H4V1z"/>
            <path fill="#000" d="M5 0v2H3V0zM3 0v2H1V0zM19 1v2h-2V1zM5 3v2H3V3z"/>
            <path fill="#000" d="M4 2v2H2V2zM5 5v2H3V5zM16 3v2h-2V3zM16 1v2h-2V1zM16 5v2h-2V5zM13 3v2h-2V3z"/>
            <path fill="#000" d="M13 2v2h-2V2zM13 5v2h-2V5zM16 6v2h-2V6zM14 7v2h-2V7zM12 7v2h-2V7z"/>
            <path fill="#000" d="M11 6v2H9V6zM9 7v2H7V7z"/>
            <path fill="#000" d="M8 6v2H6V6zM6 7v2H4V7zM4 7v2H2V7zM18 12v2h-2v-2zM16 11v2h-2v-2z"/>
            <path fill="#000" d="M15 12v2h-2v-2zM13 11v2h-2v-2z"/>
            <path fill="#000" d="M12 11v2h-2v-2zM10 12v2H8v-2zM8 11v2H6v-2z"/>
            <path fill="#000" d="M7 12v2H5v-2zM5 11v2H3v-2zM18 13v2h-2v-2zM5 13v2H3v-2zM17 15v2h-2v-2zM4 15v2H2v-2z"/>
            <path fill="#000" d="M18 16v2h-2v-2zM5 16v2H3v-2zM5 18v2H3v-2zM18 18v2h-2v-2zM20 19v2h-2v-2zM18 20v2h-2v-2z"/>
            <path fill="#000" d="M17 19v2h-2v-2zM15 20v2h-2v-2zM13 19v2h-2v-2z"/>
            <path fill="#000" d="M12 19v2h-2v-2zM10 20v2H8v-2zM8 19v2H6v-2z"/>
            <path fill="#000" d="M7 20v2H5v-2zM5 20v2H3v-2z"/>
            <path fill="#000" d="M4 19v2H2v-2zM21 21h-2v-2h2z"/>
            <path fill="#000" d="M21 20h-2v-2h2zM21 18h-2v-2h2zM21 16h-2v-2h2zM21 14h-2v-2h2z"/>
            <path fill="#000" d="M21 13h-2v-2h2z"/>
            <path fill="#000" d="M21 12h-2v-2h2zM21 9h-2V7h2z"/>
            <path fill="#000" d="M21 8h-2V6h2zM21 6h-2V4h2z"/>
            <path fill="#000" d="M21 5h-2V3h2z"/>
 </symbol>
</svg>